<?xml version="1.0" encoding="utf-8"?>
<!-- Generator: Adobe Illustrator 16.0.0, SVG Export Plug-In . SVG Version: 6.00 Build 0)  -->
<!DOCTYPE svg PUBLIC "-//W3C//DTD SVG 1.1//EN" "http://www.w3.org/Graphics/SVG/1.1/DTD/svg11.dtd">
<svg version="1.1" id="レイヤー_1" xmlns="http://www.w3.org/2000/svg" xmlns:xlink="http://www.w3.org/1999/xlink" x="0px"
	 y="0px" width="74.94px" height="38.994px" viewBox="0.002 0 74.94 38.994" enable-background="new 0.002 0 74.94 38.994"
	 xml:space="preserve">
<g>
	<g>
		<path d="M25.934,7.826h4.47v2.363c0,0.32,0.284,0.484,0.568,0.484c0.295,0,0.578-0.164,0.578-0.484V7.826h3.5
			c0.366,0,0.544-0.26,0.544-0.521c0-0.271-0.189-0.543-0.544-0.543h-3.5V4.99c0.722,0,1.479,0.01,2.163,0.023h0.013
			c0.391,0,0.579-0.248,0.579-0.51c0-0.26-0.2-0.521-0.592-0.531c-0.708,0-1.441-0.012-2.163-0.012V2.602h2.812
			c0.38,0,0.567-0.262,0.567-0.521s-0.188-0.52-0.567-0.52h-5.226c0.295-0.545,0.391-0.744,0.391-0.922
			c0-0.332-0.343-0.58-0.674-0.58c-0.213,0-0.414,0.105-0.521,0.355c-0.544,1.324-1.23,2.389-2.142,3.238
			c-0.143,0.131-0.2,0.271-0.2,0.414c0,0.297,0.271,0.557,0.592,0.557c0.152,0,0.332-0.072,0.497-0.225
			c0.46-0.449,0.979-1.088,1.44-1.797h1.881V3.96H28.89c-0.97,0-1.289,0.602-1.301,1.135c-0.022,0.84-0.035,1.275-0.035,1.666h-1.62
			c-0.367,0-0.566,0.283-0.566,0.557C25.366,7.578,25.544,7.826,25.934,7.826z M28.736,5.449C28.748,5.201,28.854,5,29.256,5h1.146
			v1.762H28.7C28.713,6.324,28.724,5.816,28.736,5.449z"/>
		<path d="M38.788,4.281c0-0.309-0.226-0.463-0.449-0.463s-0.462,0.164-0.474,0.484c-0.013,0.65-0.035,2.234-0.035,3.512
			c0,0.531,0,1.004,0.012,1.348c0.023,0.85,0.58,1.158,1.266,1.193c0.379,0.023,0.839,0.035,1.302,0.035
			c1.536,0,2.315-0.035,2.328-1.264c0-0.426,0.012-1.006,0.012-1.656c0-1.111-0.012-2.375-0.034-3.203
			c-0.013-0.33-0.227-0.484-0.449-0.484c-0.225,0-0.45,0.166-0.45,0.473v0.012c0.014,0.816,0.048,2.447,0.048,3.617
			c0,1.432,0,1.525-0.578,1.572c-0.271,0.023-0.593,0.035-0.924,0.035c-1.348,0-1.596,0-1.607-0.508
			C38.74,8.83,38.74,8.629,38.74,8.416c0.07,0.049,0.167,0.072,0.248,0.072c0.13,0,0.402-0.049,0.971-1.088l-0.072,1.488
			c0,0.014,0,0.014,0,0.025c0,0.225,0.202,0.33,0.402,0.33c0.201,0,0.415-0.117,0.415-0.342V8.889l-0.036-1.535
			c0.152,0.129,0.308,0.307,0.449,0.484c0.069,0.094,0.166,0.131,0.248,0.131c0.199,0,0.391-0.188,0.391-0.402
			c0-0.307-0.65-0.709-0.853-0.805c-0.034-0.023-0.083-0.023-0.117-0.023c-0.049,0-0.082,0-0.132,0.023V6.467l0.746,0.012h0.013
			c0.225,0,0.331-0.189,0.331-0.377c0-0.178-0.106-0.367-0.344-0.367h-0.746l0.014-0.262c0.06,0.049,0.142,0.084,0.225,0.084
			s0.153-0.035,0.213-0.096c0.485-0.543,0.591-0.695,0.591-0.828c0-0.188-0.213-0.342-0.4-0.342c-0.095,0-0.189,0.049-0.237,0.154
			c-0.095,0.201-0.271,0.486-0.39,0.662l0.036-1.051V4.043c0-0.236-0.201-0.342-0.402-0.342s-0.415,0.117-0.415,0.342v0.014
			l0.036,0.896c-0.07-0.143-0.344-0.65-0.627-0.65c-0.178,0-0.389,0.131-0.389,0.309c0,0.047,0.021,0.105,0.068,0.164
			c0.083,0.107,0.283,0.297,0.402,0.568c0.059,0.141,0.153,0.189,0.261,0.189c0.118,0,0.224-0.061,0.295-0.166v0.367H39.19
			c-0.235,0-0.354,0.189-0.354,0.377c0,0.189,0.118,0.367,0.344,0.367h0.011l0.579-0.012C39.45,7.01,39.06,7.52,38.74,7.838
			c0-1.182,0.012-2.707,0.048-3.535C38.788,4.291,38.788,4.291,38.788,4.281z"/>
		<path d="M46.106,8.252c-0.069,0-0.152-0.023-0.235-0.035c-0.022-0.014-0.06-0.014-0.082-0.014c-0.249,0-0.402,0.273-0.402,0.521
			c0,0.402,0.26,0.508,0.804,0.508c1.219,0,1.219-1.029,1.219-1.939c0-2.008-0.143-2.174-1.514-2.174
			c-0.793,0-1.773,0.023-2.578,0.023c-0.318,0-0.483,0.225-0.483,0.461c0,0.225,0.165,0.461,0.483,0.461
			c0.272,0,0.592-0.012,0.924-0.023l-0.014,4.066c0,0.367,0.272,0.543,0.544,0.543c0.26,0,0.532-0.176,0.532-0.543l-0.012-4.078
			c0.897,0,1.063,0,1.089,0.365c0.011,0.201,0.011,0.58,0.011,0.924C46.391,8.016,46.38,8.252,46.106,8.252z"/>
		<path d="M37.807,3.535h4.883c0.035,0,0.06-0.012,0.084-0.012c-0.06,0.094-0.096,0.189-0.096,0.283c0,0.26,0.261,0.461,0.532,0.461
			c0.166,0,0.343-0.07,0.474-0.248l0.023-0.037c0.022,0.203,0.177,0.393,0.448,0.393h1.985c0.31,0,0.463-0.236,0.463-0.461
			c0-0.236-0.153-0.461-0.463-0.461h-1.985c-0.035,0-0.06,0.012-0.095,0.012c0.366-0.58,0.674-1.219,0.969-1.893
			c0.036-0.084,0.071-0.119,0.106-0.119c0.048,0,0.084,0.035,0.131,0.119c0.497,0.875,1.028,1.75,1.631,2.566
			c0.144,0.188,0.309,0.26,0.475,0.26c0.318,0,0.604-0.273,0.604-0.592c0-0.117-0.036-0.248-0.143-0.365
			c-0.65-0.746-1.288-1.586-1.797-2.438c-0.226-0.377-0.592-0.578-0.946-0.578s-0.697,0.201-0.875,0.627
			c-0.282,0.697-0.674,1.441-1.1,2.045c0-0.213-0.143-0.438-0.427-0.438l-1.762,0.012l0.012-0.557h1.372
			c0.284,0,0.426-0.225,0.426-0.437c0-0.227-0.142-0.438-0.426-0.438l-1.372,0.01V0.697c0-0.33-0.248-0.496-0.497-0.496
			c-0.248,0-0.482,0.166-0.482,0.496v1.975h-0.65l0.011-1.324c0-0.332-0.248-0.496-0.508-0.496c-0.236,0-0.483,0.164-0.483,0.496
			l0.012,1.324L37.807,2.66c-0.308,0-0.474,0.213-0.474,0.438C37.333,3.311,37.499,3.535,37.807,3.535z"/>
		<path d="M12.062,8.619c0-0.227-0.143-0.439-0.45-0.439H9.271V7.482h1.833c0.308,0,0.449-0.213,0.449-0.438
			c0-0.211-0.143-0.426-0.449-0.426H9.26v-0.53c1.62,0,1.809-0.164,1.809-1.111c0-1.086-0.248-1.086-2.471-1.086
			c-0.638,0-1.277,0-1.845,0.01C5.606,3.914,5.559,4.316,5.559,5.035c0,1.018,0.284,1.053,2.626,1.053v0.531H5.37
			c-0.297,0-0.438,0.215-0.438,0.426c0,0.225,0.142,0.438,0.438,0.438h0.673V8.18H4.956c-0.295,0-0.438,0.213-0.438,0.439
			c0,0.211,0.144,0.436,0.438,0.436h3.215l-0.01,1.146c0,0.344,0.281,0.508,0.554,0.508c0.284,0,0.568-0.164,0.568-0.508
			L9.271,9.055h2.341C11.92,9.055,12.062,8.83,12.062,8.619z M8.171,8.18h-1.1V7.482h1.112L8.171,8.18z M8.231,5.297
			c-1.455,0-1.572-0.07-1.572-0.213c0-0.25,0-0.25,0-0.25C6.671,4.729,6.766,4.67,7.013,4.67h2.59c0.343,0,0.379,0.119,0.379,0.295
			C9.981,5.25,9.97,5.297,8.231,5.297z"/>
		<path d="M5.949,1.986h0.012h1.063L6.884,2.613H5.251c-0.295,0-0.461,0.225-0.461,0.436c0,0.215,0.152,0.426,0.461,0.426h6.338
			c0.296,0,0.45-0.223,0.45-0.447c0-0.224-0.154-0.438-0.438-0.438h-0.013l-0.805,0.012c0.013-0.154,0.013-0.32,0.013-0.438
			c0-0.025,0-0.049,0-0.061c0-0.674-0.366-0.957-1.101-0.969c-0.343,0-0.84-0.012-1.37-0.012L8.42,0.744
			c0.012-0.035,0.012-0.082,0.012-0.117c0-0.273-0.261-0.426-0.52-0.426c-0.249,0-0.497,0.131-0.568,0.414L7.227,1.111
			c-0.497,0-0.946,0.012-1.266,0.012c-0.309,0-0.462,0.225-0.462,0.438S5.653,1.986,5.949,1.986z M8.112,1.975
			c0.497,0,0.971,0,1.278,0.012c0.235,0.012,0.354,0.082,0.354,0.318c0,0.072,0,0.189-0.014,0.309H7.947L8.112,1.975z"/>
		<path d="M1.917,5.84c0.308,0,0.615-0.225,1.301-1.135l-0.131,5.438v0.012c0,0.354,0.271,0.52,0.557,0.52s0.567-0.176,0.579-0.531
			l0.143-7.188c0.531-0.957,0.992-1.951,0.992-2.188c0-0.332-0.331-0.566-0.649-0.566c-0.226,0-0.438,0.117-0.521,0.391
			C3.679,2.246,2.674,3.818,1.574,4.906c-0.132,0.129-0.19,0.285-0.19,0.412C1.384,5.604,1.621,5.84,1.917,5.84z"/>
		<path d="M14.181,10.498c0.106,0,0.224-0.023,0.343-0.084c2.259-1.053,3.596-2.871,4.257-4.916
			c1.029,2.695,3.523,4.846,4.528,4.846c0.474,0,0.78-0.365,0.78-0.721c0-0.236-0.13-0.461-0.461-0.58
			c-1.976-0.732-4.104-3.25-4.327-6.146c0-0.035,0-0.07-0.012-0.094V2.754c0.035-0.508,0.047-1.016,0.047-1.43
			c0-0.426-0.331-0.627-0.65-0.627c-0.332,0-0.661,0.201-0.661,0.592c0,0.012,0,0.023,0,0.035c0.022,0.355,0.045,0.756,0.045,1.111
			c0,0.887-0.104,5.035-4.138,6.832c-0.308,0.143-0.438,0.355-0.438,0.58C13.494,10.178,13.791,10.498,14.181,10.498z"/>
		<path d="M53.305,8.771c0.272,0,1.584-0.533,2.909-1.855c0.544,0.307,1.018,0.639,1.407,1.004c0.13,0.119,0.26,0.166,0.39,0.166
			c0.308,0,0.579-0.283,0.579-0.604c0-0.295-0.212-0.613-1.666-1.371c1.276-1.666,1.655-3.32,1.655-3.475
			c0-0.318-0.32-0.533-0.627-0.533c-0.226,0-0.426,0.119-0.484,0.379c-0.249,1.135-0.769,2.246-1.515,3.168
			c-1.111-0.482-2.247-0.779-2.425-0.779c-0.331,0-0.543,0.26-0.543,0.508c0,0.178,0.106,0.332,0.331,0.391
			c0.675,0.176,1.312,0.4,1.903,0.662c-0.603,0.543-1.301,0.992-2.104,1.289c-0.271,0.105-0.392,0.295-0.392,0.482
			C52.726,8.488,52.962,8.771,53.305,8.771z"/>
		<path d="M53.72,4.209c0.07,0.236,0.248,0.342,0.448,0.342c0.271,0,0.579-0.225,0.579-0.555c0-0.355-0.708-1.596-1.301-1.596
			c-0.284,0-0.544,0.201-0.544,0.438c0,0.094,0.048,0.189,0.143,0.283C53.353,3.404,53.601,3.818,53.72,4.209z"/>
		<path d="M55.469,3.748c0.048,0.26,0.236,0.377,0.438,0.377c0.271,0,0.567-0.211,0.567-0.566c0-0.449-0.498-1.596-1.089-1.596
			c-0.271,0-0.521,0.189-0.521,0.426c0,0.082,0.022,0.166,0.095,0.248C55.197,2.945,55.397,3.346,55.469,3.748z"/>
		<path d="M73.104,4.801h-1.88c-0.344,0-0.508,0.234-0.508,0.484c0,0.236,0.164,0.484,0.508,0.484h1.88
			c0.318,0,0.485-0.248,0.485-0.484C73.59,5.035,73.423,4.801,73.104,4.801z"/>
		<path d="M66.519,6.029c-0.152,0-0.295,0.082-0.343,0.271c-0.059,0.271-0.201,0.686-0.32,0.898
			c-0.033,0.07-0.047,0.129-0.047,0.189c0,0.225,0.226,0.379,0.45,0.379c0.117,0,0.236-0.047,0.308-0.154
			c0.189-0.285,0.461-1.027,0.461-1.146C67.027,6.207,66.756,6.029,66.519,6.029z"/>
		<path d="M64.143,8.346c0.236,0,0.508-0.213,0.508-0.578c0-0.309-0.248-1.111-0.53-1.479c-0.084-0.119-0.226-0.166-0.368-0.166
			c-0.235,0-0.46,0.143-0.46,0.379c0,0.059,0.012,0.131,0.047,0.201c0.131,0.248,0.343,0.826,0.413,1.275
			C63.8,8.238,63.964,8.346,64.143,8.346z"/>
		<path d="M63.551,4.057c0.153,0,0.319-0.061,0.426-0.227L64,3.795c0.083,0.07,0.188,0.105,0.331,0.105h0.448v0.84h-1.11
			c-0.318,0-0.485,0.225-0.485,0.461c0,0.225,0.167,0.461,0.485,0.461h1.11v2.957c-0.448,0.117-0.909,0.223-1.359,0.307
			c-0.271,0.047-0.401,0.271-0.401,0.496c0,0.26,0.178,0.52,0.497,0.52c0.307,0,2.365-0.543,3.57-1.182
			c0.214-0.119,0.297-0.283,0.297-0.461c0-0.236-0.179-0.461-0.415-0.461c-0.059,0-0.117,0.012-0.189,0.047
			c-0.282,0.143-0.626,0.295-1.017,0.426V5.662h0.769c0.309,0,0.462-0.236,0.462-0.461c0-0.236-0.153-0.461-0.462-0.461h-0.769V3.9
			h0.485c0.307,0,0.462-0.223,0.462-0.459c0-0.07-0.025-0.143-0.049-0.201h0.013c0.271,0,0.52-0.236,0.52-0.51
			c0-0.094-0.033-0.201-0.105-0.295c-0.33-0.414-0.638-1.006-0.887-1.443c-0.236-0.414-0.579-0.625-0.898-0.625
			s-0.627,0.211-0.815,0.637c-0.343,0.781-0.888,1.668-1.359,2.236c-0.096,0.117-0.13,0.225-0.13,0.33
			C62.995,3.842,63.268,4.057,63.551,4.057z M65.266,1.514c0.023-0.047,0.06-0.061,0.095-0.061c0.036,0,0.082,0.023,0.105,0.072
			c0.188,0.342,0.497,0.994,0.817,1.453h-1.774C64.78,2.52,65.053,2.01,65.266,1.514z"/>
		<path d="M73.294,9.422h-0.461c0-0.248,0.012-0.496,0.012-0.744c0-0.344-0.012-0.662-0.023-0.957
			c-0.023-0.627-0.461-1.018-1.136-1.029C71.26,6.68,70.857,6.68,70.468,6.68c-0.531,0-1.054,0-1.607,0.012
			c-0.687,0.012-1.11,0.354-1.124,1.018c-0.012,0.484-0.012,1.098-0.012,1.713h-0.579c-0.331,0-0.497,0.225-0.497,0.449
			s0.166,0.449,0.497,0.449h6.148c0.318,0,0.483-0.225,0.483-0.449S73.613,9.422,73.294,9.422z M69.155,9.422h-0.531
			c0-0.543,0.013-1.123,0.022-1.572c0-0.201,0.166-0.354,0.379-0.354h0.13V9.422z M70.491,9.422h-0.484v-1.94h0.484V9.422z
			 M71.354,9.422V7.496h0.131c0.261,0,0.391,0.152,0.401,0.354c0.036,0.438,0.036,1.004,0.036,1.572H71.354z"/>
		<path d="M69.238,6.312c0.319,0,0.639-0.012,0.899-0.023c0.26-0.012,0.379-0.248,0.379-0.473s-0.132-0.449-0.355-0.449
			c-0.013,0-0.013,0-0.022,0c-0.154,0.012-0.344,0.012-0.533,0.012V4.574c0.402-0.035,0.615-0.164,0.697-0.412
			c0.013,0.236,0.262,0.377,0.521,0.377c0.438,0,0.604-0.342,0.91-1.24h1.372c0.318,0,0.485-0.236,0.485-0.486
			c0-0.234-0.167-0.473-0.485-0.473h-1.088c0.166-0.613,0.261-1.217,0.261-1.488c0-0.285-0.261-0.426-0.531-0.426
			c-0.271,0-0.544,0.141-0.558,0.426c-0.022,0.473-0.13,1.713-0.839,3.131V3.9c0-0.07,0-0.152,0-0.248
			c0-0.969-0.035-1.193-0.686-1.229h-0.061V1.619h0.521c0.284-0.01,0.425-0.236,0.425-0.461c0-0.201-0.117-0.391-0.366-0.4
			c-0.177-0.014-0.4-0.014-0.649-0.014c-0.485,0-1.039,0.014-1.406,0.014c-0.475,0-0.852,0.307-0.876,0.896
			C67.24,2.021,67.24,2.719,67.24,3.441c0,0.707,0,1.441,0.011,1.877C67.287,6.289,67.819,6.312,69.238,6.312z M68.114,1.928
			c0.014-0.26,0.118-0.297,0.284-0.309c0.107,0,0.248-0.01,0.403-0.01v0.803c-0.237,0-0.498,0.012-0.699,0.012
			C68.103,2.223,68.114,2.057,68.114,1.928z M68.103,3.109c0.319,0,0.615-0.012,0.875-0.012c0.545,0,0.58,0.047,0.592,0.225v0.295
			c-0.022,0.236-0.022,0.236-1.467,0.236V3.109z M68.802,4.598v0.793c-0.58,0-0.675-0.023-0.688-0.318
			c0-0.131-0.012-0.297-0.012-0.475C68.103,4.598,68.103,4.598,68.802,4.598z"/>
		<path d="M1.535,37.851c0.366-0.188,0.753-0.429,1.14-0.711l0.031,0.063c0.396,0.739,1.266,0.069,0.898-0.533
			c-0.042-0.063-0.083-0.137-0.114-0.211c0.783-0.729,1.464-1.619,1.809-2.603c1.893,0.47,1.788,2.938-0.815,3.783
			c-0.856,0.283-0.596,1.254,0.346,0.941c3.564-1.17,3.723-5.02,0.67-5.572c0.042-0.502-0.92-0.701-0.993-0.084v0.021
			c-0.042,0-0.084,0-0.126,0c-0.354,0.02-0.732,0.104-1.097,0.229c0.041-0.291,0.083-0.594,0.135-0.93
			c0.606-0.104,1.233-0.271,1.81-0.459c0.825-0.273,0.366-1.16-0.24-0.932c-0.45,0.168-0.931,0.303-1.411,0.408
			c0.042-0.24,0.094-0.503,0.136-0.765c0.115-0.627-0.899-0.795-1.013-0.021c-0.044,0.313-0.097,0.629-0.138,0.932
			c-0.438,0.031-0.837,0.01-1.13-0.084c-0.7-0.219-0.91,0.742-0.293,0.92c0.356,0.105,0.805,0.137,1.308,0.105
			c-0.053,0.428-0.094,0.846-0.125,1.243c-0.156,0.084-0.304,0.169-0.438,0.25c-0.952,0.607-1.789,1.746-1.872,2.771
			C-0.106,38.019,0.887,38.187,1.535,37.851z M3.188,34.076c0.375-0.146,0.772-0.252,1.076-0.281h0.03
			c-0.229,0.638-0.616,1.213-1.086,1.703C3.156,35.08,3.146,34.608,3.188,34.076z M2.268,34.565
			c-0.011,0.617,0.021,1.183,0.116,1.675c-0.305,0.229-0.618,0.43-0.933,0.606c-0.271,0.146-0.555,0.104-0.522-0.313
			C0.972,35.916,1.441,35.174,2.268,34.565z"/>
		<path d="M15.86,33.521c0.513,0.324,1.057-0.543,0.346-0.973c-0.502-0.303-1.233-0.428-1.925-0.365
			c-0.669,0.062-0.628,0.933-0.052,0.9C14.836,33.051,15.368,33.209,15.86,33.521z"/>
		<path d="M13.581,34.16c-0.042,0.198-0.062,0.489-0.053,0.698c0.011,0.265,0.03,0.523,0.03,0.785c0,0.138,0,0.25,0,0.365
			c-0.646-0.115-1.357-0.094-2.007,0.199c-1.076,0.48-0.962,1.609,0.011,2.102c1.266,0.638,2.572-0.094,2.874-0.932
			c0.242,0.168,0.44,0.357,0.598,0.545c0.503,0.605,1.349-0.135,0.752-0.795c-0.262-0.281-0.721-0.607-1.275-0.836
			c-0.01-0.23-0.03-0.449-0.041-0.648c-0.011-0.303-0.011-0.563-0.011-0.805c0-0.221,0.031-0.334,0.062-0.492
			C14.627,33.722,13.706,33.586,13.581,34.16z M13.497,36.992c-0.115,0.563-0.961,0.866-1.588,0.555
			c-0.314-0.155-0.293-0.459-0.012-0.606c0.514-0.25,1.077-0.229,1.609-0.053C13.497,36.92,13.508,36.963,13.497,36.992z"/>
		<path d="M10.361,35.791c0.668-1.086,1.381-2.342,1.871-3.522c0.43-0.125,0.857-0.293,1.118-0.48
			c0.67-0.482,0.011-1.131-0.46-0.795c-0.093,0.062-0.209,0.115-0.333,0.176c0.072-0.248,0.135-0.479,0.146-0.637
			c0.021-0.596-0.899-0.711-0.994-0.094c-0.054,0.377-0.104,0.711-0.209,1.057c-0.543,0.135-1.087,0.146-1.434,0.031
			c-0.74-0.242-0.939,0.721-0.302,0.897c0.396,0.117,0.847,0.158,1.379,0.054c-0.512,1.098-1.128,1.985-1.713,2.854
			C8.971,36.01,9.974,36.418,10.361,35.791z"/>
		<path d="M22.661,36.681c-0.545-0.556-1.192,0.271-0.743,0.772c0.46,0.512,1.757,0.991,3.271,0.688
			c0.689-0.137,0.627-1.139-0.136-1.076C23.831,37.17,23.193,37.224,22.661,36.681z"/>
		<path d="M25.431,32.957c-1.023-0.365-1.975-0.24-2.509-0.054c-0.69,0.24-0.366,1.099,0.178,0.898
			c0.554-0.207,1.505-0.092,2.091,0.105C25.849,34.129,26.132,33.209,25.431,32.957z"/>
		<path d="M19.377,37.924c0.513-1.161,1.255-2.969,1.914-5.26c0.386-0.115,0.764-0.271,1.056-0.418
			c0.785-0.388,0.136-1.254-0.408-0.897c-0.124,0.071-0.251,0.146-0.396,0.219c0.03-0.293,0.03-0.574-0.011-0.836
			c-0.104-0.574-1.089-0.545-1.046,0.053c0.031,0.459,0.073,0.742,0.011,1.129c-0.492,0.094-1.004,0.094-1.442-0.064
			c-0.783-0.281-0.889,0.67-0.354,0.9c0.438,0.188,0.972,0.209,1.524,0.146c-0.637,2.026-1.379,3.617-1.829,4.537
			C17.957,38.319,19.063,38.623,19.377,37.924z"/>
		<path d="M34.393,36.178c-0.01-0.334-0.052-0.68-0.062-0.94c-0.021-0.512-0.053-1.328-0.062-2.144
			c0.251-0.053,0.502-0.114,0.753-0.18c0.899-0.217,0.449-1.17-0.229-0.961c-0.168,0.053-0.354,0.094-0.533,0.146
			c0-0.512,0.011-0.951,0.031-1.244c0.042-0.563-0.982-0.657-1.003,0.021c-0.012,0.326,0,0.858,0.011,1.444
			c-0.514,0.082-1.015,0.115-1.475,0.031c-0.806-0.137-0.932,0.931-0.21,0.994c0.597,0.051,1.15,0.01,1.715-0.074
			c0.031,0.826,0.053,1.631,0.085,2.062c0.009,0.196,0.029,0.354,0.029,0.521c-0.637-0.137-1.274-0.125-1.84,0.125
			c-1.087,0.48-1.065,1.674-0.156,2.195c1.14,0.648,2.414-0.051,2.812-0.879c0.24,0.168,0.46,0.357,0.648,0.547
			c0.522,0.553,1.264-0.357,0.669-0.902C35.251,36.647,34.831,36.388,34.393,36.178z M31.843,37.358
			c-0.252-0.146-0.188-0.502,0.062-0.616c0.397-0.188,0.92-0.138,1.442,0.062h0.012C33.19,37.422,32.344,37.642,31.843,37.358z"/>
		<path d="M29.177,35.353c-0.021,0.053-0.095,0.239-0.126,0.303c-0.104,0.209-0.114,0.178-0.136-0.01
			c-0.042-0.418,0.062-1.297,0.196-2.187c0.138-0.89,0.314-1.799,0.39-2.271c0.104-0.657-0.993-0.866-1.058-0.021
			c-0.053,0.681-0.28,1.853-0.418,3.117c-0.136,1.264-0.167,2.614,0.168,3.67c0.179,0.563,0.648,0.604,0.918,0.354
			c0.264-0.252,0.127-0.543,0.21-0.836c0.042-0.168,0.104-0.397,0.188-0.66c0.084-0.26,0.188-0.543,0.324-0.823
			C30.211,35.205,29.417,34.851,29.177,35.353z"/>
		<path d="M43.721,34.281c-0.276,0-0.783,0-1.359,0c-1.404,0-3.271,0-3.65,0.014c-0.334,0.011-0.507,0.274-0.507,0.541
			c0,0.254,0.161,0.496,0.507,0.496c0.011,0,0.011,0,0.021,0c0.438-0.015,3.825-0.037,4.631-0.037c0.104,0,0.208,0.047,0.208,0.174
			c0,0.484-1.222,1.97-2.293,2.466c-0.275,0.127-0.392,0.311-0.392,0.496c0,0.286,0.299,0.563,0.669,0.563
			c0.91,0,3.34-2.443,3.34-3.849C44.896,34.617,44.527,34.306,43.721,34.281z"/>
		<path d="M42.845,33.744c0.343,0,0.509-0.244,0.509-0.476c0-0.244-0.166-0.487-0.509-0.487h-2.204
			c-0.343,0-0.508,0.243-0.508,0.487c0,0.23,0.165,0.476,0.508,0.476H42.845z"/>
		<path d="M56.285,30.662h-5.091c-0.324,0-0.48,0.229-0.48,0.471c0,0.229,0.156,0.472,0.48,0.472h3.48
			c0,1.59-0.021,4.631-0.021,5.666c0,0.418-0.238,0.617-0.813,0.617c-0.23,0-0.502-0.021-0.826-0.085
			c-0.041-0.012-0.084-0.012-0.114-0.012c-0.304,0-0.462,0.229-0.462,0.472c0,0.555,0.618,0.606,1.351,0.606
			c1.441,0,1.913-0.701,1.913-1.402c0-0.01,0-0.01,0-0.021l-0.021-1.473c-0.01-0.701-0.01-3.115-0.01-4.369h0.616
			c0.335,0,0.503-0.23,0.503-0.472C56.788,30.901,56.62,30.662,56.285,30.662z"/>
		<path d="M50.223,29.89c-0.188,0-0.377,0.104-0.471,0.334c-0.555,1.422-1.381,2.594-2.404,3.504
			c-0.125,0.112-0.178,0.25-0.178,0.375c0,0.25,0.209,0.471,0.491,0.471c0.293,0,0.574-0.24,1.183-0.951l-0.148,4.902
			c0,0.012,0,0.012,0,0.021c0,0.304,0.263,0.449,0.523,0.449c0.271,0,0.544-0.156,0.554-0.472l0.063-6.252
			c0.323-0.512,0.961-1.578,0.961-1.858C50.797,30.106,50.504,29.89,50.223,29.89z"/>
		<path d="M53.798,35.354c0.011-0.239,0.021-0.563,0.021-0.91c0-0.332-0.01-0.68-0.021-0.93c-0.021-0.563-0.492-0.805-0.889-0.826
			c-0.251-0.01-0.533-0.02-0.815-0.02c-0.22,0-0.449,0.01-0.658,0.02c-0.48,0.033-0.837,0.439-0.848,0.89
			c0,0.262-0.011,0.598-0.011,0.932c0,0.322,0.011,0.638,0.011,0.857c0.021,0.532,0.407,0.92,0.879,0.95
			c0.229,0.011,0.47,0.021,0.721,0.021c0.25,0,0.491-0.012,0.712-0.021C53.4,36.287,53.777,35.877,53.798,35.354z M52.125,35.472
			c-0.513,0-0.639-0.072-0.647-0.294c-0.011-0.155-0.021-0.471-0.021-0.764c0-0.238,0.011-0.47,0.021-0.584
			c0.021-0.199,0.124-0.304,0.313-0.313c0.104-0.011,0.239-0.011,0.387-0.011c0.491,0,0.699,0.011,0.722,0.312
			c0.011,0.168,0.021,0.48,0.021,0.765C52.92,35.438,52.92,35.472,52.125,35.472z"/>
		<path d="M62.346,36.838c0-0.012,0-0.012,0-0.022c0-0.281-0.021-0.689-0.021-0.92v-0.826h0.731c0.25,0,0.364-0.178,0.364-0.364
			c0-0.181-0.114-0.356-0.364-0.356h-2.479c-0.251,0-0.388,0.188-0.388,0.377c0,0.178,0.126,0.346,0.388,0.346h0.95
			c0.012,0.25,0.012,0.574,0.012,0.877c0,0.879,0,0.963-0.263,0.963c-0.084,0-0.167-0.021-0.262-0.043
			c-0.021-0.01-0.051-0.01-0.073-0.01c-0.197,0-0.323,0.209-0.323,0.418c0,0.365,0.313,0.438,0.68,0.438
			C62,37.715,62.346,37.297,62.346,36.838z"/>
		<path d="M62.418,35.803c0,0.082,0.053,0.166,0.169,0.238c0.292,0.181,0.418,0.272,0.627,0.545
			c0.094,0.115,0.188,0.168,0.293,0.168c0.188,0,0.366-0.188,0.366-0.407c0-0.355-0.733-0.869-1.059-0.869
			C62.606,35.478,62.418,35.635,62.418,35.803z"/>
		<path d="M66.862,36.606c-0.188,0-0.376,0.104-0.419,0.365c-0.083,0.512-0.229,0.711-0.417,0.711c-0.42,0-0.867-0.826-0.898-0.889
			c0.681-0.742,1.16-1.621,1.16-1.82c0-0.262-0.271-0.469-0.532-0.469c-0.158,0-0.313,0.082-0.398,0.26
			c-0.167,0.377-0.364,0.732-0.606,1.066c-0.156-0.574-0.249-1.244-0.292-1.975c0.638,0,1.286,0.01,1.943,0.021h0.013
			c0.271,0,0.418-0.211,0.418-0.408c0-0.209-0.147-0.418-0.431-0.418H66.11c-0.021-0.084-0.136-0.407-0.354-0.627h1.076
			c0.271,0,0.406-0.209,0.406-0.42c0-0.209-0.137-0.416-0.406-0.416h-3.449v-0.481h2.204c0.283,0,0.419-0.209,0.419-0.418
			s-0.136-0.418-0.419-0.418h-2.204v-0.28c0-0.337-0.263-0.503-0.515-0.503c-0.262,0-0.512,0.166-0.512,0.503v1.6h-1.339v-1.065
			c0-0.314-0.261-0.474-0.511-0.474c-0.262,0-0.514,0.158-0.514,0.474v1.065h-1.182c-0.283,0-0.429,0.22-0.429,0.438
			c0,0.197,0.137,0.396,0.429,0.396h4.746c-0.052,0.072-0.095,0.178-0.095,0.293c0,0.01,0,0.031,0,0.041l0.011,0.281
			c-1.172,0-2.32,0-3.377,0.012c-0.711,0.01-1.099,0.521-1.099,1.004c0,0.021,0,0.029,0,0.041c0.013,0.25,0.031,0.564,0.031,0.92
			c0,0.92-0.135,2.08-0.897,2.875c-0.104,0.115-0.157,0.23-0.157,0.344c0,0.263,0.262,0.472,0.545,0.472
			c0.521,0,1.002-0.865,1.253-1.828c0.062,0.072,0.168,0.113,0.271,0.113c0.355,0,1.287-0.847,1.287-1.17
			c0-0.199-0.21-0.355-0.407-0.355c-0.127,0-0.253,0.062-0.336,0.199c-0.125,0.219-0.407,0.479-0.689,0.627
			c0.084-0.533,0.105-1.045,0.105-1.463c0-0.199-0.012-0.377-0.012-0.522c0-0.25,0.136-0.429,0.46-0.429
			c0.973-0.012,2.009-0.021,3.085-0.021c0.083,0.981,0.238,1.912,0.544,2.738c-0.682,0.627-1.59,1.108-2.876,1.391
			c-0.252,0.053-0.365,0.229-0.365,0.408c0,0.229,0.177,0.461,0.479,0.461c0.126,0,1.715-0.263,3.137-1.435
			c0.533,0.94,1.076,1.254,1.579,1.254c0.961,0,1.349-1.159,1.349-1.588C67.385,36.785,67.113,36.606,66.862,36.606z M64.427,33.053
			V32.75c0-0.138-0.043-0.242-0.105-0.324h0.89c-0.083,0.052-0.136,0.115-0.136,0.197c0,0.043,0.011,0.084,0.042,0.127
			c0.051,0.082,0.094,0.166,0.146,0.303H64.427z"/>
		<path d="M71.236,37.379c-0.298,0-0.763,0.291-0.763,0.804c0,0.397,0.343,0.77,0.763,0.77c0.299,0,0.763-0.209,0.763-0.77
			C71.998,37.658,71.667,37.379,71.236,37.379z"/>
		<path d="M71.483,29.767c-2.043,0-2.798,1.555-2.798,1.971c0,0.371,0.348,0.541,0.682,0.541c0.284,0,0.569-0.113,0.632-0.34
			c0.1-0.304,0.508-1.045,1.499-1.045c0.495,0,1.411,0.258,1.411,1.36c0,0.293-0.088,0.617-0.271,0.922
			c-0.446,0.744-2.069,1.396-2.069,2.826c0,0.418,0.311,0.619,0.632,0.619c0.336,0,0.693-0.224,0.693-0.652
			c0-1.024,1.622-1.6,2.068-2.61c0.161-0.371,0.247-0.767,0.247-1.127C74.208,30.688,72.945,29.767,71.483,29.767z"/>
		<path d="M51.536,10.441c0.158,0.082,0.348,0.084,0.508,0.004c0.493-0.246,1.276-0.406,1.996-0.406
			c0.534,0,1.011,0.088,1.338,0.242c0.152,0.072,0.328,0.072,0.479,0c0.329-0.154,0.805-0.242,1.339-0.242
			c0.721,0,1.505,0.16,1.996,0.406c0.079,0.039,0.164,0.057,0.25,0.057c0.088,0,0.179-0.02,0.26-0.061
			c0.156-0.084,0.268-0.238,0.294-0.416l1.309-8.82c0.036-0.248-0.098-0.492-0.329-0.594C60.059,0.211,59.02,0,57.97,0
			c-0.838,0-1.646,0.141-2.353,0.408C54.914,0.141,54.105,0,53.266,0c-1.049,0-2.087,0.211-3.003,0.611
			c-0.229,0.102-0.365,0.346-0.329,0.594l1.309,8.82C51.268,10.203,51.377,10.357,51.536,10.441z M53.266,1.117
			c0.777,0,1.515,0.141,2.131,0.408c0.143,0.061,0.303,0.061,0.444,0c0.616-0.268,1.353-0.408,2.129-0.408
			c0.737,0,1.489,0.129,2.162,0.365l-1.141,7.691c-0.547-0.16-1.178-0.252-1.796-0.252c-0.43,0-1.027,0.047-1.578,0.25
			c-0.549-0.203-1.147-0.25-1.577-0.25c-0.618,0-1.248,0.092-1.795,0.252l-1.142-7.691C51.778,1.246,52.53,1.117,53.266,1.117z"/>
		<path d="M45.721,32.069c-0.09,0.011-0.177,0.019-0.258,0.019c-0.597,0-0.821-0.312-1.142-0.817
			c-0.041-0.066-0.083-0.133-0.125-0.195c-0.58-0.875-1.189-1.322-1.808-1.322c-0.246,0-0.481,0.072-0.706,0.211
			c-0.223-0.133-0.457-0.199-0.697-0.199c-0.623,0-1.23,0.439-1.808,1.312c-0.043,0.062-0.084,0.129-0.126,0.194
			c-0.318,0.508-0.544,0.818-1.14,0.818c-0.081,0-0.168-0.008-0.26-0.018c-0.185-0.023-0.36,0.088-0.414,0.268
			s0.031,0.371,0.199,0.449c0.321,0.156,0.682,0.232,1.07,0.232c1.199,0,2.51-0.746,3.205-1.756c0.79,1.045,2.038,1.756,3.17,1.756
			c0.376,0,0.729-0.076,1.05-0.232c0.17-0.078,0.254-0.27,0.201-0.449C46.082,32.158,45.905,32.047,45.721,32.069z"/>
		<path d="M47.003,27.521c4.029,0,7.308-3.276,7.308-7.309c0-0.264-0.016-0.525-0.044-0.783h16.422c1.789,0,2.367,1.189,2.367,1.768
			c0,0.52,0.423,0.942,0.943,0.942s0.942-0.424,0.942-0.942c0-1.521-1.319-3.656-4.254-3.656h-16.89
			c-1.069-2.709-3.709-4.633-6.795-4.633c-3.428,0-6.304,2.373-7.088,5.561c-0.536-0.264-1.146-0.416-1.795-0.416
			c-0.643,0-1.246,0.148-1.777,0.408c-0.788-3.184-3.662-5.553-7.087-5.553c-3.085,0-5.727,1.924-6.795,4.633H5.571
			c-2.934,0-4.255,2.137-4.255,3.656c0,0.52,0.425,0.942,0.944,0.942s0.943-0.424,0.943-0.942c0-0.578,0.577-1.768,2.366-1.768
			h16.422c-0.027,0.258-0.045,0.52-0.045,0.783c0,4.031,3.278,7.309,7.309,7.309c3.886,0,7.062-3.051,7.286-6.881
			c0.35-0.424,0.925-0.701,1.578-0.701c0.664,0,1.25,0.287,1.598,0.723C39.952,24.481,43.125,27.521,47.003,27.521z M29.256,25.164
			c-2.729,0-4.95-2.222-4.95-4.951c0-2.729,2.221-4.949,4.95-4.949s4.951,2.221,4.951,4.949
			C34.207,22.942,31.986,25.164,29.256,25.164z M47.003,15.264c2.729,0,4.95,2.221,4.95,4.949c0,2.729-2.222,4.951-4.95,4.951
			c-2.729,0-4.951-2.222-4.951-4.951C42.052,17.484,44.273,15.264,47.003,15.264z"/>
	</g>
</g>
</svg>
